<svg width="20" height="20" viewBox="0 0 20 20" fill="none" xmlns="http://www.w3.org/2000/svg">
<path d="M18.3333 9.58301C18.3333 10.4163 18.3333 12.4997 17.0833 12.4997C16.4583 12.4997 16.0417 12.2913 15.8333 12.083V18.333H4.16667V12.083C3.95834 12.2913 3.54167 12.4997 2.91667 12.4997C1.68501 12.4997 1.66667 10.4163 1.66667 9.58301C1.66667 6.24967 4.58334 2.08301 10 2.08301C15.4167 2.08301 18.3333 6.24967 18.3333 9.58301Z" fill="#FBC02D"/>
<path d="M12.5 10C12.5 10 12.2 12.1083 10.8292 12.7375C10.8208 12.7417 10.8125 12.7458 10.8042 12.75C10.7917 12.7542 10.7792 12.7625 10.7667 12.7667C10.8083 12.6833 10.8333 12.5917 10.8333 12.5C10.8333 12.0417 10.275 11.6667 9.58333 11.6667C9.06667 11.6667 8.625 11.875 8.4375 12.1708C8.39167 12.125 8.35417 12.0792 8.31667 12.0292C7.67083 11.1708 7.5 10 7.5 10C7.5 10 8.62083 10.8333 10 10.8333C11.3792 10.8333 12.5 10 12.5 10Z" fill="#821616"/>
<path d="M10.8333 12.5003C10.8333 12.592 10.8083 12.6837 10.7667 12.767C10.5375 12.8587 10.2833 12.917 10 12.917C9.35417 12.917 8.86667 12.6378 8.50417 12.2503C8.47917 12.2253 8.45833 12.2003 8.4375 12.1712C8.625 11.8753 9.06667 11.667 9.58333 11.667C10.275 11.667 10.8333 12.042 10.8333 12.5003Z" fill="#E57373"/>
<path d="M17.0833 12.4997V18.333H15.8333V12.083C16.0417 12.2913 16.4583 12.4997 17.0833 12.4997ZM4.16667 12.083V18.333H2.91667V12.4997C3.54167 12.4997 3.95834 12.2913 4.16667 12.083Z" fill="#F9A825"/>
<path d="M9.99988 6.6709C5.22488 6.78757 5.64697 10.8667 6.08238 12.0834C6.3478 12.8209 6.90072 13.3334 7.38822 13.3334C8.69405 13.3334 8.9203 11.2167 9.12947 10.0001C9.21197 9.48756 9.6128 9.2834 9.99988 9.2334C10.3874 9.2834 10.7878 9.48756 10.8703 10.0001C11.0791 11.2167 11.3057 13.3334 12.6116 13.3334C13.0991 13.3334 13.652 12.8209 13.9174 12.0834C14.3528 10.8667 14.7749 6.78757 9.99988 6.6709Z" fill="#FFA000"/>
<path d="M6.89166 7.7291C6.475 8.12077 6.20833 8.5916 6.04583 9.07494C5.2 8.80827 4.58333 8.0166 4.58333 7.08327C4.58333 6.1291 5.22916 5.32077 6.10416 5.0791C5.92916 5.35827 5.83333 5.6916 5.83333 6.0416C5.83333 6.78744 6.2625 7.4291 6.89166 7.7291ZM15.4125 7.18744C15.3708 8.0791 14.7708 8.82077 13.9542 9.07494C13.6208 8.08327 12.8542 7.16244 11.2708 6.8166C11.3625 6.0541 11.875 5.42077 12.5625 5.14577C12.5208 5.29994 12.5 5.45827 12.5 5.62494C12.5 6.66244 13.3375 7.49994 14.375 7.49994C14.7583 7.49994 15.1167 7.38744 15.4125 7.18744ZM10 8.33327C9.55797 8.33327 9.13405 8.42107 8.82148 8.57735C8.50892 8.73363 8.33333 8.94559 8.33333 9.1666C8.33333 9.38762 8.50892 9.59958 8.82148 9.75586C9.13405 9.91214 9.55797 9.99994 10 9.99994C10.442 9.99994 10.8659 9.91214 11.1785 9.75586C11.4911 9.59958 11.6667 9.38762 11.6667 9.1666C11.6667 8.94559 11.4911 8.73363 11.1785 8.57735C10.8659 8.42107 10.442 8.33327 10 8.33327Z" fill="#212121"/>
<path d="M8.72916 6.81667C7.92083 6.99167 7.325 7.32083 6.89166 7.72917C6.2625 7.42917 5.83333 6.7875 5.83333 6.04167C5.83333 5.69167 5.92916 5.35833 6.10416 5.07917C6.28333 5.025 6.47083 5 6.66666 5C7.72499 5 8.6 5.79167 8.72916 6.81667ZM15.4167 7.08333C15.4167 7.11667 15.4167 7.15417 15.4125 7.1875C15.1167 7.3875 14.7583 7.5 14.375 7.5C13.3375 7.5 12.5 6.6625 12.5 5.625C12.5 5.45833 12.5208 5.3 12.5625 5.14583C12.8 5.05417 13.0625 5 13.3333 5C14.4833 5 15.4167 5.93333 15.4167 7.08333Z" fill="#FAFAFA"/>
</svg>
