<svg width="14" height="12" viewBox="0 0 14 12" fill="none" xmlns="http://www.w3.org/2000/svg">
<path d="M9.44125 10.298L8.029 8.88487C7.48286 9.08014 6.8925 9.1163 6.32662 8.98915C5.76073 8.862 5.24259 8.57678 4.83247 8.16666C4.42235 7.75654 4.13712 7.23839 4.00998 6.67251C3.88283 6.10662 3.91899 5.51626 4.11425 4.97012L2.31175 3.16762C0.82075 4.49325 0 6 0 6C0 6 2.625 10.8125 7 10.8125C7.84035 10.8096 8.6712 10.6345 9.44125 10.298ZM4.55875 1.702C5.3288 1.3655 6.15964 1.19039 7 1.1875C11.375 1.1875 14 6 14 6C14 6 13.1784 7.50588 11.6891 8.83325L9.88488 7.029C10.0801 6.48286 10.1163 5.8925 9.98915 5.32662C9.862 4.76073 9.57678 4.24258 9.16666 3.83247C8.75654 3.42235 8.23839 3.13712 7.67251 3.00998C7.10662 2.88283 6.51626 2.91899 5.97013 3.11425L4.55875 1.70288V1.702Z" fill="black"/>
<path d="M4.83455 5.69043C4.78642 6.0267 4.81727 6.36956 4.92465 6.69184C5.03203 7.01412 5.21299 7.30697 5.45319 7.54717C5.69339 7.78737 5.98624 7.96833 6.30852 8.07571C6.6308 8.18309 6.97366 8.21394 7.30993 8.1658L4.83455 5.69043ZM9.1658 6.30993L6.69043 3.83368C7.0267 3.78555 7.36956 3.81639 7.69184 3.92377C8.01412 4.03115 8.30697 4.21211 8.54717 4.45231C8.78737 4.69252 8.96833 4.98536 9.07571 5.30764C9.18309 5.62992 9.21394 5.97366 9.1658 6.30993ZM11.9404 11.5599L1.44043 1.05993L2.05993 0.44043L12.5599 10.9404L11.9404 11.5599Z" fill="black"/>
</svg>
