<svg width="200" height="27" viewBox="0 0 200 27" fill="none" xmlns="http://www.w3.org/2000/svg">
<path fill-rule="evenodd" clip-rule="evenodd" d="M41.202 11.1536C40.1002 9.00006 37.6962 6.42863 32.5543 6.42863C26.4775 6.42863 22.5042 11.1858 18.9983 15.3965C16.0935 18.9001 13.3222 22.1786 10.0501 22.1786C6.6778 22.1786 4.60768 18.8036 4.60768 16.3929C4.60768 14.1429 6.87813 10.8965 10.4508 10.8965C13.8898 10.8965 15.7596 13.6286 15.8264 13.7251C16.4942 14.7858 17.9299 15.1072 18.9983 14.4643C20.1002 13.8215 20.4341 12.4393 19.7663 11.3786C19.4324 10.8643 16.394 6.39648 10.4508 6.39648C4.30718 6.42863 0 11.7001 0 16.3929C0 21.2465 4.14024 26.6786 10.0501 26.6786C15.5259 26.6786 19.1319 22.3715 22.6044 18.1929C25.7429 14.4643 28.7145 10.9286 32.5543 10.9286C34.8247 10.9286 36.2938 11.6679 37.0618 13.1786C37.763 14.5286 37.763 16.0715 37.763 16.5858C37.763 16.8751 37.596 18.3858 36.8281 19.7679C35.9933 21.2786 34.7913 21.9858 33.0551 21.9858C29.4491 21.9858 27.5125 19.7036 26.778 18.8358C26.5777 18.6108 26.4441 18.4501 26.2438 18.2572C25.7763 17.8715 25.1753 17.6786 24.5409 17.7108C24.2404 17.7429 23.9399 17.8072 23.6728 17.9358C23.4057 18.0643 23.172 18.2572 22.9716 18.4822C22.1703 19.3822 22.2371 20.7322 23.1386 21.6001L23.2387 21.6965C24.2404 22.8858 27.3122 26.4536 33.0885 26.4536C40.1336 26.4536 42.4374 19.7679 42.4374 16.5536C42.404 14.4643 42.0034 12.6643 41.202 11.1536Z" fill="#F67555"/>
</svg>
